<svg width="36" height="37" viewBox="0 0 36 37" fill="none" xmlns="http://www.w3.org/2000/svg">
<path d="M19.0985 4.59216L22.6649 12.1571C22.8397 12.5373 23.1839 12.8031 23.5844 12.8672L31.567 14.0846C31.891 14.1312 32.1836 14.3105 32.3798 14.5827C32.576 14.8548 32.6596 15.1973 32.6119 15.5338C32.5718 15.8105 32.4444 16.0654 32.2497 16.2584L26.4682 22.1713C26.176 22.4627 26.0449 22.8879 26.1199 23.3017L27.513 31.6347C27.6138 32.3213 27.1679 32.9656 26.51 33.0839C26.2387 33.1281 25.9609 33.0825 25.7159 32.9535L18.5969 29.0261C18.2413 28.8224 17.8102 28.8224 17.4546 29.0261L10.2938 32.9825C9.69307 33.3032 8.95607 33.0648 8.63601 32.4463C8.51123 32.1969 8.46725 31.9122 8.51063 31.6347L9.90377 23.3017C9.97115 22.8884 9.84126 22.4668 9.55548 22.1713L3.73217 16.2584C3.25594 15.7562 3.25594 14.9491 3.73217 14.4469C3.92653 14.2597 4.16816 14.134 4.42874 14.0846L12.4114 12.8672C12.81 12.7985 13.1523 12.5341 13.3309 12.1571L16.8973 4.59216C17.0382 4.28542 17.2923 4.05088 17.6018 3.94174C17.9113 3.8326 18.25 3.8581 18.5412 4.01247C18.7814 4.13921 18.9766 4.34225 19.0985 4.59216Z" stroke="#C32D2C" stroke-linecap="round" stroke-linejoin="round"/>
<path fill-rule="evenodd" clip-rule="evenodd" d="M17.9531 3.875C17.8346 3.87884 17.7162 3.90079 17.6018 3.94113C17.2923 4.05027 17.0382 4.28481 16.8973 4.59155L13.3309 12.1565C13.1523 12.5335 12.81 12.7979 12.4114 12.8666L4.42874 14.084C4.16816 14.1334 3.92653 14.2591 3.73217 14.4463C3.25594 14.9485 3.25594 15.7556 3.73217 16.2578L9.55548 22.1707C9.84126 22.4662 9.97115 22.8878 9.90377 23.3011L8.51063 31.6341C8.46725 31.9116 8.51123 32.1963 8.63601 32.4457C8.95607 33.0642 9.69307 33.3026 10.2938 32.9819L17.4546 29.0255C17.6105 28.9362 17.7809 28.886 17.9531 28.875V3.875Z" fill="#C32D2C"/>
<path d="M17.6018 3.94113L17.4355 3.46959V3.46959L17.6018 3.94113ZM17.9531 3.875H18.4531C18.4531 3.73958 18.3982 3.60996 18.3009 3.51577C18.2036 3.42158 18.0723 3.37088 17.9369 3.37526L17.9531 3.875ZM16.8973 4.59155L17.3496 4.80477L17.3517 4.80028L16.8973 4.59155ZM13.3309 12.1565L13.7827 12.3706L13.7831 12.3697L13.3309 12.1565ZM12.4114 12.8666L12.4868 13.361L12.4964 13.3593L12.4114 12.8666ZM4.42874 14.084L4.35336 13.5897C4.34741 13.5906 4.34147 13.5916 4.33556 13.5927L4.42874 14.084ZM3.73217 14.4463L3.38531 14.0862C3.37987 14.0914 3.37455 14.0968 3.36935 14.1023L3.73217 14.4463ZM3.73217 16.2578L3.36928 16.6019L3.37593 16.6087L3.73217 16.2578ZM9.55548 22.1707L9.91494 21.8231L9.91172 21.8198L9.55548 22.1707ZM9.90377 23.3011L10.3969 23.3835L10.3973 23.3815L9.90377 23.3011ZM8.51063 31.6341L8.01745 31.5517L8.01663 31.5569L8.51063 31.6341ZM8.63601 32.4457L8.18882 32.6694L8.19194 32.6754L8.63601 32.4457ZM10.2938 32.9819L10.5293 33.423L10.5356 33.4195L10.2938 32.9819ZM17.4546 29.0255L17.6964 29.4632L17.7031 29.4594L17.4546 29.0255ZM17.9531 28.875L17.985 29.374C18.2482 29.3572 18.4531 29.1388 18.4531 28.875H17.9531ZM17.768 4.41267C17.8339 4.38944 17.9017 4.37693 17.9693 4.37474L17.9369 3.37526C17.7674 3.38075 17.5984 3.41214 17.4355 3.46959L17.768 4.41267ZM17.3517 4.80028C17.4379 4.61258 17.5902 4.47538 17.768 4.41267L17.4355 3.46959C16.9943 3.62516 16.6386 3.95705 16.443 4.38282L17.3517 4.80028ZM13.7831 12.3697L17.3496 4.80476L16.4451 4.37834L12.8786 11.9433L13.7831 12.3697ZM12.4964 13.3593C13.0612 13.2619 13.5371 12.8891 13.7827 12.3706L12.879 11.9424C12.7675 12.1779 12.5587 12.3338 12.3264 12.3739L12.4964 13.3593ZM4.50412 14.5783L12.4868 13.3609L12.336 12.3723L4.35336 13.5897L4.50412 14.5783ZM4.07903 14.8064C4.20467 14.6854 4.3586 14.6062 4.52192 14.5752L4.33556 13.5927C3.97772 13.6606 3.64839 13.8328 3.38531 14.0862L4.07903 14.8064ZM4.09499 15.9138C3.80167 15.6044 3.80167 15.0997 4.09499 14.7903L3.36935 14.1023C2.71022 14.7974 2.71022 15.9067 3.36935 16.6019L4.09499 15.9138ZM9.91172 21.8198L4.08841 15.907L3.37593 16.6087L9.19924 22.5215L9.91172 21.8198ZM10.3973 23.3815C10.4895 22.8158 10.3128 22.2346 9.91492 21.8231L9.19604 22.5182C9.36968 22.6978 9.45281 22.9597 9.41028 23.2206L10.3973 23.3815ZM9.00379 31.7165L10.3969 23.3835L9.41061 23.2186L8.01747 31.5517L9.00379 31.7165ZM9.08316 32.2219C9.00527 32.0663 8.97719 31.8869 9.00463 31.7113L8.01663 31.5569C7.95731 31.9363 8.01718 32.3263 8.18886 32.6694L9.08316 32.2219ZM10.0584 32.5408C9.71287 32.7252 9.27705 32.5965 9.08008 32.2159L8.19194 32.6754C8.63508 33.5319 9.67327 33.8799 10.5293 33.423L10.0584 32.5408ZM17.2128 28.5879L10.052 32.5442L10.5356 33.4195L17.6964 29.4631L17.2128 28.5879ZM17.9212 28.3761C17.6732 28.3919 17.4286 28.4641 17.206 28.5916L17.7031 29.4594C17.7923 29.4082 17.8886 29.3802 17.985 29.374L17.9212 28.3761ZM18.4531 28.875V3.875H17.4531V28.875H18.4531Z" fill="#C32D2C"/>
</svg>
