<svg width="32" height="32" viewBox="0 0 32 32" fill="none" xmlns="http://www.w3.org/2000/svg">
<path d="M11.0004 16L14.3337 19.3333L21.0004 12.6667M9.05826 3.82841C10.2542 3.73298 11.3895 3.26272 12.3026 2.48458C14.4334 0.668714 17.5674 0.668714 19.6982 2.48458C20.6113 3.26272 21.7466 3.73298 22.9425 3.82841C25.7332 4.05111 27.9493 6.26718 28.172 9.0579C28.2674 10.2538 28.7376 11.3891 29.5158 12.3022C31.3317 14.433 31.3317 17.567 29.5158 19.6978C28.7376 20.6109 28.2674 21.7462 28.172 22.9421C27.9493 25.7328 25.7332 27.9489 22.9425 28.1716C21.7466 28.267 20.6113 28.7373 19.6982 29.5154C17.5674 31.3313 14.4334 31.3313 12.3026 29.5154C11.3895 28.7373 10.2542 28.267 9.05826 28.1716C6.26754 27.9489 4.05148 25.7328 3.82878 22.9421C3.73335 21.7462 3.26309 20.6109 2.48495 19.6978C0.669081 17.567 0.669081 14.433 2.48495 12.3022C3.26309 11.3891 3.73335 10.2538 3.82878 9.0579C4.05148 6.26718 6.26754 4.05111 9.05826 3.82841Z" stroke="#DB5857" stroke-linecap="round" stroke-linejoin="round"/>
</svg>
