<svg width="24" height="24" viewBox="0 0 25 24" fill="none" xmlns="http://www.w3.org/2000/svg">
<path fill-rule="evenodd" clip-rule="evenodd" d="M12.5 24C19.1274 24 24.5 18.6274 24.5 12C24.5 5.37258 19.1274 0 12.5 0C5.87258 0 0.5 5.37258 0.5 12C0.5 18.6274 5.87258 24 12.5 24ZM18.0607 10.9393L13.5607 6.43934C12.9749 5.85355 12.0251 5.85355 11.4393 6.43934C10.8536 7.02513 10.8536 7.97487 11.4393 8.56066L13.3787 10.5L8 10.5C7.17157 10.5 6.5 11.1716 6.5 12C6.5 12.8284 7.17157 13.5 8 13.5H13.3787L11.4393 15.4393C10.8536 16.0251 10.8536 16.9749 11.4393 17.5607C12.0251 18.1464 12.9749 18.1464 13.5607 17.5607L18.0607 13.0607C18.6464 12.4749 18.6464 11.5251 18.0607 10.9393Z" fill="white"/>
</svg>
