<svg width="14" height="12" viewBox="0 0 14 12" fill="none" xmlns="http://www.w3.org/2000/svg">
<path d="M11.6667 11.3332H2.33333C1.59695 11.3332 1 10.7362 1 9.99984L1 1.99984C1 1.26346 1.59695 0.666504 2.33333 0.666504L9 0.666504C9.73638 0.666504 10.3333 1.26346 10.3333 1.99984V2.6665M11.6667 11.3332C10.9303 11.3332 10.3333 10.7362 10.3333 9.99984L10.3333 2.6665M11.6667 11.3332C12.403 11.3332 13 10.7362 13 9.99984V3.99984C13 3.26346 12.403 2.6665 11.6667 2.6665L10.3333 2.6665M7.66667 0.666504L5 0.666504M3.66667 8.6665H7.66667M3.66667 3.33317H7.66667V5.99984H3.66667V3.33317Z" stroke="#666666" stroke-linecap="round" stroke-linejoin="round"/>
</svg>
