<svg width="17" height="17" viewBox="0 0 17 17" fill="none" xmlns="http://www.w3.org/2000/svg">
<g clip-path="url(#clip0_9809_139244)">
<path d="M12.7634 8.05896C12.9337 7.77736 13.0319 7.44747 13.0319 7.09505C13.0319 6.06474 12.1937 5.22651 11.1634 5.22651H8.96603V4.36444C9.51175 4.17089 9.90375 3.64974 9.90375 3.0385C9.90375 1.93834 8.93874 0.941572 8.82868 0.831546L8.49717 0.5L8.16565 0.831546C8.0556 0.941572 7.09059 1.93834 7.09059 3.0385C7.09059 3.64974 7.48259 4.17089 8.02831 4.36444V5.22651H5.83098C4.80068 5.22651 3.96245 6.06474 3.96245 7.09505C3.96245 7.44747 4.06063 7.77733 4.23089 8.05896C3.36665 8.22275 2.71094 8.98321 2.71094 9.89439V9.92568C2.71094 10.6619 3.1391 11.2998 3.75937 11.6042L4.40977 16.5H12.5846L13.235 11.6042C13.8552 11.2999 14.2834 10.6619 14.2834 9.92568V9.89439C14.2834 8.98321 13.6277 8.22275 12.7634 8.05896ZM8.49714 1.89486C8.72704 2.21521 8.96603 2.64966 8.96603 3.03853C8.96603 3.29706 8.7557 3.50739 8.49717 3.50739C8.23864 3.50739 8.02831 3.29706 8.02831 3.03853C8.02831 2.6496 8.2674 2.21506 8.49714 1.89486ZM5.83098 6.16423H11.1634C11.6766 6.16423 12.0942 6.5818 12.0942 7.09505C12.0942 7.60829 11.6766 8.02586 11.1634 8.02586H5.83098C5.31774 8.02586 4.90017 7.60829 4.90017 7.09505C4.90017 6.5818 5.31774 6.16423 5.83098 6.16423ZM4.7306 11.7942H5.87043L6.12071 15.5623H5.23115L4.7306 11.7942ZM10.1842 11.7942L9.93388 15.5623H8.96603V11.7942H10.1842ZM8.02831 15.5623H7.06046L6.81018 11.7942H8.02831V15.5623ZM11.7632 15.5623H10.8736L11.1239 11.7942H12.2637L11.7632 15.5623ZM13.3457 9.92568C13.3457 10.4389 12.9281 10.8565 12.4149 10.8565H4.57947C4.06622 10.8565 3.64869 10.4389 3.64869 9.92568V9.89439C3.64869 9.38114 4.06622 8.96358 4.57947 8.96358H12.4149C12.9281 8.96358 13.3457 9.38114 13.3457 9.89439V9.92568Z" fill="#828282"/>
</g>
<defs>
<clipPath id="clip0_9809_139244">
<rect width="16" height="16" fill="white" transform="translate(0.5 0.5)"/>
</clipPath>
</defs>
</svg>
