<svg width="25" height="25" viewBox="0 0 25 25" fill="none" xmlns="http://www.w3.org/2000/svg">
<path d="M14.5 10.125H19.2639C20.7507 10.125 21.7177 11.6896 21.0528 13.0194L17.5528 20.0194C17.214 20.697 16.5215 21.125 15.7639 21.125H11.7462C11.5827 21.125 11.4198 21.1049 11.2611 21.0653L7.5 20.125M14.5 10.125V5.125C14.5 4.02043 13.6046 3.125 12.5 3.125H12.4045C11.905 3.125 11.5 3.52997 11.5 4.02953C11.5 4.74383 11.2886 5.44215 10.8923 6.03649L7.5 11.125V20.125M14.5 10.125H12.5M7.5 20.125H5.5C4.39543 20.125 3.5 19.2296 3.5 18.125V12.125C3.5 11.0204 4.39543 10.125 5.5 10.125H8" stroke="white" stroke-linecap="round" stroke-linejoin="round"/>
</svg>
