<svg width="48" height="48" viewBox="0 0 48 48" fill="none" xmlns="http://www.w3.org/2000/svg">
<path fill-rule="evenodd" clip-rule="evenodd" d="M24 0C10.7452 0 0 10.7452 0 24C0 37.2548 10.7452 48 24 48C37.2548 48 48 37.2548 48 24C48 10.7452 37.2548 0 24 0ZM26.3966 14.5907C27.4654 13.5585 28.8968 12.9873 30.3826 13.0002C31.8684 13.0131 33.2896 13.6091 34.3403 14.6597C35.3909 15.7104 35.9869 17.1316 35.9998 18.6174C36.0127 20.1032 35.4415 21.5346 34.4093 22.6034L34.3971 22.6158L29.7304 27.2824L29.7303 27.2825C28.6677 28.3449 27.2266 28.9417 25.724 28.9417C24.2214 28.9417 22.7803 28.3449 21.7177 27.2825C21.3271 26.8921 21.327 26.2589 21.7175 25.8683C22.1079 25.4777 22.7411 25.4776 23.1317 25.8681C23.8193 26.5555 24.7517 26.9417 25.724 26.9417C26.6962 26.9417 27.6286 26.5555 28.3162 25.8682C28.3163 25.8682 28.3163 25.8681 28.3163 25.8681L32.9764 21.2081C33.6407 20.5172 34.0082 19.5935 33.9999 18.6348C33.9915 17.6734 33.6059 16.7538 32.9261 16.0739C32.2462 15.3941 31.3266 15.0085 30.3652 15.0001C29.4065 14.9918 28.4828 15.3593 27.7919 16.0236L26.5151 17.3004C26.1246 17.691 25.4914 17.691 25.1009 17.3004C24.7104 16.9099 24.7104 16.2767 25.1009 15.8862L26.3842 14.6029L26.3966 14.5907ZM19.3843 21.6028C20.447 20.5404 21.8881 19.9437 23.3907 19.9437C24.8933 19.9437 26.3344 20.5404 27.397 21.6028C27.7876 21.9932 27.7877 22.6264 27.3972 23.017C27.0068 23.4076 26.3736 23.4077 25.983 23.0172C25.2954 22.3298 24.3629 21.9437 23.3907 21.9437C22.4185 21.9437 21.486 22.3298 20.7985 23.0171C20.7984 23.0171 20.7984 23.0172 20.7983 23.0172L16.1318 27.6838L16.1194 27.6959C15.7692 28.0342 15.4899 28.4388 15.2977 28.8861C15.1055 29.3335 15.0044 29.8146 15.0001 30.3015C14.9959 30.7883 15.0887 31.2712 15.273 31.7218C15.4574 32.1724 15.7297 32.5818 16.0739 32.9261C16.4182 33.2703 16.8276 33.5426 17.2782 33.727C17.7288 33.9113 18.2117 34.0041 18.6985 33.9999C19.1854 33.9956 19.6665 33.8945 20.1139 33.7023C20.5612 33.5101 20.9658 33.2308 21.3041 32.8806L21.3166 32.8679L22.6022 31.5834C22.9929 31.193 23.6261 31.1933 24.0164 31.584C24.4068 31.9747 24.4065 32.6079 24.0158 32.9982L22.7361 34.2768C22.2147 34.8148 21.5917 35.2442 20.9033 35.5399C20.2119 35.8369 19.4683 35.9932 18.7159 35.9998C17.9635 36.0063 17.2173 35.8629 16.5209 35.578C15.8245 35.2931 15.1918 34.8723 14.6597 34.3403C14.1277 33.8082 13.7069 33.1755 13.422 32.4791C13.1371 31.7827 12.9937 31.0365 13.0002 30.2841C13.0068 29.5317 13.1631 28.7881 13.4601 28.0967C13.7558 27.4082 14.1853 26.7852 14.7234 26.2637L19.3842 21.6029L19.3843 21.6028Z" fill="#41444C"/>
</svg>
