<svg width="48" height="48" viewBox="0 0 48 48" fill="none" xmlns="http://www.w3.org/2000/svg">
<path fill-rule="evenodd" clip-rule="evenodd" d="M24 0C10.7452 0 0 10.7452 0 24C0 37.2548 10.7452 48 24 48C37.2548 48 48 37.2548 48 24C48 10.7452 37.2548 0 24 0ZM13.0089 15.0089C13.6548 14.3629 14.5309 14 15.4444 14H32.5556C33.4691 14 34.3452 14.3629 34.9911 15.0089C35.6371 15.6548 36 16.5309 36 17.4444V18.6511C36.0001 18.6609 36.0001 18.6706 36 18.6803V29.6667C36 30.5802 35.6371 31.4563 34.9911 32.1023C34.3452 32.7482 33.4691 33.1111 32.5556 33.1111H15.4444C14.5309 33.1111 13.6548 32.7482 13.0089 32.1023C12.3629 31.4563 12 30.5802 12 29.6667V18.6803C11.9999 18.6706 11.9999 18.6609 12 18.6512V17.4444C12 16.5309 12.3629 15.6548 13.0089 15.0089ZM14 20.5352V29.6667C14 30.0498 14.1522 30.4172 14.4231 30.688C14.694 30.9589 15.0614 31.1111 15.4444 31.1111H32.5556C32.9386 31.1111 33.306 30.9589 33.5769 30.688C33.8478 30.4172 34 30.0498 34 29.6667V20.5352L25.9117 25.9274C25.3456 26.305 24.6804 26.5066 24 26.5066C23.3196 26.5066 22.6544 26.305 22.0883 25.9274L14 20.5352ZM34 18.1315L24.802 24.2635L24.8017 24.2637C24.5643 24.4221 24.2853 24.5066 24 24.5066C23.7147 24.5066 23.4357 24.4221 23.1983 24.2637L23.198 24.2635L14 18.1315V17.4444C14 17.0614 14.1522 16.694 14.4231 16.4231C14.694 16.1522 15.0614 16 15.4444 16H32.5556C32.9386 16 33.306 16.1522 33.5769 16.4231C33.8478 16.694 34 17.0614 34 17.4444V18.1315Z" fill="#DB5857"/>
</svg>
