<svg width="36" height="37" viewBox="0 0 36 37" fill="none" xmlns="http://www.w3.org/2000/svg">
<path d="M19.0985 4.59216L22.6649 12.1571C22.8398 12.5373 23.1839 12.8031 23.5844 12.8672L31.567 14.0846C31.891 14.1312 32.1836 14.3105 32.3798 14.5827C32.576 14.8548 32.6596 15.1973 32.6119 15.5338C32.5718 15.8105 32.4444 16.0654 32.2497 16.2584L26.4682 22.1713C26.176 22.4627 26.045 22.8879 26.1199 23.3017L27.513 31.6347C27.6138 32.3213 27.1679 32.9656 26.51 33.0839C26.2387 33.1281 25.9609 33.0825 25.7159 32.9535L18.5969 29.0261C18.2413 28.8224 17.8102 28.8224 17.4546 29.0261L10.2938 32.9825C9.69307 33.3032 8.95607 33.0648 8.63601 32.4463C8.51123 32.1969 8.46725 31.9122 8.51063 31.6347L9.90377 23.3017C9.97115 22.8884 9.84126 22.4668 9.55548 22.1713L3.73217 16.2584C3.25594 15.7562 3.25594 14.9491 3.73217 14.4469C3.92653 14.2597 4.16816 14.134 4.42874 14.0846L12.4114 12.8672C12.81 12.7985 13.1523 12.5341 13.3309 12.1571L16.8973 4.59216C17.0382 4.28542 17.2923 4.05088 17.6018 3.94174C17.9113 3.8326 18.25 3.8581 18.5412 4.01247C18.7814 4.13921 18.9766 4.34225 19.0985 4.59216Z" stroke="#C32D2C" stroke-linecap="round" stroke-linejoin="round"/>
</svg>
