<svg width="14" height="14" viewBox="0 0 14 14" fill="none" xmlns="http://www.w3.org/2000/svg">
<path d="M11.6667 13V2.33333C11.6667 1.59695 11.0697 1 10.3333 1H3.66667C2.93029 1 2.33333 1.59695 2.33333 2.33333V13M11.6667 13L13 13M11.6667 13H8.33333M2.33333 13L1 13M2.33333 13H5.66667M5 3.66665H5.66667M5 6.33332H5.66667M8.33333 3.66665H9M8.33333 6.33332H9M5.66667 13V9.66665C5.66667 9.29846 5.96514 8.99999 6.33333 8.99999H7.66667C8.03486 8.99999 8.33333 9.29846 8.33333 9.66665V13M5.66667 13H8.33333" stroke="#666666" stroke-linecap="round" stroke-linejoin="round"/>
</svg>
