<svg width="12" height="14" viewBox="0 0 12 14" fill="none" xmlns="http://www.w3.org/2000/svg">
<path d="M3.33317 3.66667V9C3.33317 9.73638 3.93012 10.3333 4.6665 10.3333H8.6665M3.33317 3.66667V2.33333C3.33317 1.59695 3.93012 1 4.6665 1H7.72369C7.90051 1 8.07007 1.07024 8.1951 1.19526L11.1379 4.13807C11.2629 4.2631 11.3332 4.43266 11.3332 4.60948V9C11.3332 9.73638 10.7362 10.3333 9.99984 10.3333H8.6665M3.33317 3.66667H2.6665C1.56193 3.66667 0.666504 4.5621 0.666504 5.66667V11.6667C0.666504 12.403 1.26346 13 1.99984 13H6.66651C7.77107 13 8.6665 12.1046 8.6665 11V10.3333" stroke="#666666" stroke-linecap="round" stroke-linejoin="round"/>
</svg>
