<svg width="14" height="14" viewBox="0 0 14 14" fill="none" xmlns="http://www.w3.org/2000/svg">
<path d="M8 1.45139L7.62513 1.78226C7.632 1.79004 7.63911 1.79761 7.64645 1.80495L8 1.45139ZM12.5486 8L12.2177 7.62513C12.21 7.632 12.2024 7.63911 12.1951 7.64645L12.5486 8ZM12.6667 6.11806L13.0415 5.78719C13.0347 5.77941 13.0276 5.77184 13.0202 5.76451L12.6667 6.11806ZM6.11806 12.6667L5.76451 13.0202C5.77184 13.0276 5.77941 13.0347 5.78719 13.0415L6.11806 12.6667ZM7.88194 12.6667L8.21281 13.0415C8.22059 13.0347 8.22816 13.0276 8.2355 13.0202L7.88194 12.6667ZM1.45139 8L1.80495 7.64645L1.79393 7.63544L1.78226 7.62513L1.45139 8ZM3.66667 3.16667C3.39052 3.16667 3.16667 3.39052 3.16667 3.66667C3.16667 3.94281 3.39052 4.16667 3.66667 4.16667V3.16667ZM3.67333 4.16667C3.94948 4.16667 4.17333 3.94281 4.17333 3.66667C4.17333 3.39052 3.94948 3.16667 3.67333 3.16667V4.16667ZM1.5 3.66667C1.5 2.47005 2.47005 1.5 3.66667 1.5V0.5C1.91776 0.5 0.5 1.91776 0.5 3.66667H1.5ZM1.5 7V3.66667H0.5V7H1.5ZM3.66667 1.5H7V0.5H3.66667V1.5ZM7 1.5C7.24882 1.5 7.4717 1.60843 7.62513 1.78226L8.37487 1.12053C8.03967 0.740745 7.54764 0.5 7 0.5V1.5ZM12.5 7C12.5 7.24882 12.3916 7.4717 12.2177 7.62513L12.8795 8.37487C13.2593 8.03967 13.5 7.54764 13.5 7H12.5ZM12.2918 6.44893C12.4217 6.59613 12.5 6.78832 12.5 7H13.5C13.5 6.53539 13.3265 6.11008 13.0415 5.78719L12.2918 6.44893ZM7 12.5C6.78832 12.5 6.59613 12.4217 6.44893 12.2918L5.78719 13.0415C6.11008 13.3265 6.53539 13.5 7 13.5V12.5ZM7.55107 12.2918C7.40387 12.4217 7.21169 12.5 7 12.5V13.5C7.46461 13.5 7.88993 13.3265 8.21281 13.0415L7.55107 12.2918ZM1.78226 7.62513C1.60843 7.4717 1.5 7.24882 1.5 7H0.5C0.5 7.54764 0.740745 8.03967 1.12053 8.37487L1.78226 7.62513ZM7.64645 1.80495L12.3131 6.47161L13.0202 5.76451L8.35355 1.09784L7.64645 1.80495ZM6.47161 12.3131L1.80495 7.64645L1.09784 8.35355L5.76451 13.0202L6.47161 12.3131ZM12.1951 7.64645L7.52839 12.3131L8.2355 13.0202L12.9022 8.35355L12.1951 7.64645ZM3.66667 4.16667H3.67333V3.16667H3.66667V4.16667Z" fill="#666666"/>
</svg>
