<svg width="24" height="24" viewBox="0 0 24 24" fill="none" xmlns="http://www.w3.org/2000/svg">
<path d="M4 4V3.5H3.5V4H4ZM20 4H20.5V3.5H20V4ZM6.64645 11.6464C6.45118 11.8417 6.45118 12.1583 6.64645 12.3536C6.84171 12.5488 7.15829 12.5488 7.35355 12.3536L6.64645 11.6464ZM10 9L10.3536 8.64645C10.1583 8.45118 9.84171 8.45118 9.64645 8.64645L10 9ZM13 12L12.6464 12.3536C12.8417 12.5488 13.1583 12.5488 13.3536 12.3536L13 12ZM17.3536 8.35355C17.5488 8.15829 17.5488 7.84171 17.3536 7.64645C17.1583 7.45118 16.8417 7.45118 16.6464 7.64645L17.3536 8.35355ZM7.64645 20.6464C7.45118 20.8417 7.45118 21.1583 7.64645 21.3536C7.84171 21.5488 8.15829 21.5488 8.35355 21.3536L7.64645 20.6464ZM12 17L12.3536 16.6464C12.1583 16.4512 11.8417 16.4512 11.6464 16.6464L12 17ZM15.6464 21.3536C15.8417 21.5488 16.1583 21.5488 16.3536 21.3536C16.5488 21.1583 16.5488 20.8417 16.3536 20.6464L15.6464 21.3536ZM3 3.5C2.72386 3.5 2.5 3.72386 2.5 4C2.5 4.27614 2.72386 4.5 3 4.5V3.5ZM21 4.5C21.2761 4.5 21.5 4.27614 21.5 4C21.5 3.72386 21.2761 3.5 21 3.5V4.5ZM4 4.5H20V3.5H4V4.5ZM19.5 4V16H20.5V4H19.5ZM19 16.5H5V17.5H19V16.5ZM4.5 16V4H3.5V16H4.5ZM5 16.5C4.72386 16.5 4.5 16.2761 4.5 16H3.5C3.5 16.8284 4.17157 17.5 5 17.5V16.5ZM19.5 16C19.5 16.2761 19.2761 16.5 19 16.5V17.5C19.8284 17.5 20.5 16.8284 20.5 16H19.5ZM7.35355 12.3536L10.3536 9.35355L9.64645 8.64645L6.64645 11.6464L7.35355 12.3536ZM9.64645 9.35355L12.6464 12.3536L13.3536 11.6464L10.3536 8.64645L9.64645 9.35355ZM13.3536 12.3536L17.3536 8.35355L16.6464 7.64645L12.6464 11.6464L13.3536 12.3536ZM8.35355 21.3536L12.3536 17.3536L11.6464 16.6464L7.64645 20.6464L8.35355 21.3536ZM11.6464 17.3536L15.6464 21.3536L16.3536 20.6464L12.3536 16.6464L11.6464 17.3536ZM3 4.5H21V3.5H3V4.5Z" fill="#111111"/>
</svg>
