<svg width="24" height="24" viewBox="0 0 24 24" fill="none" xmlns="http://www.w3.org/2000/svg">
<path d="M7.19625 17.0625H8.32125V12H7.19625V17.0625ZM15.6788 17.0625H16.8038V6.375H15.6788V17.0625ZM11.4375 17.0625H12.5625V14.25H11.4375V17.0625ZM11.4375 12H12.5625V9.75H11.4375V12ZM4.81687 21C4.29937 21 3.86737 20.8267 3.52087 20.4802C3.17362 20.133 3 19.7006 3 19.1831V4.81687C3 4.29937 3.17362 3.86737 3.52087 3.52087C3.86737 3.17362 4.29937 3 4.81687 3H19.1831C19.7006 3 20.1326 3.17362 20.4791 3.52087C20.8264 3.86737 21 4.29937 21 4.81687V19.1831C21 19.7006 20.8267 20.1326 20.4802 20.4791C20.133 20.8264 19.7006 21 19.1831 21H4.81687ZM4.81687 19.875H19.1831C19.3556 19.875 19.5142 19.803 19.659 19.659C19.803 19.5142 19.875 19.3556 19.875 19.1831V4.81687C19.875 4.64437 19.803 4.48575 19.659 4.341C19.5142 4.197 19.3556 4.125 19.1831 4.125H4.81687C4.64437 4.125 4.48575 4.197 4.341 4.341C4.197 4.48575 4.125 4.64437 4.125 4.81687V19.1831C4.125 19.3556 4.197 19.5142 4.341 19.659C4.48575 19.803 4.64437 19.875 4.81687 19.875Z" fill="#111111"/>
</svg>
