<svg width="40" height="40" viewBox="0 0 40 40" fill="none" xmlns="http://www.w3.org/2000/svg">
<g clip-path="url(#clip0_5221_43849)">
<path d="M19.049 2.92664C19.3483 2.00538 20.6517 2.00538 20.951 2.92664L24.2662 13.1282C24.4 13.5402 24.784 13.8191 25.2172 13.8191L35.9438 13.8195C36.9125 13.8196 37.3153 15.0591 36.5316 15.6285L27.8538 21.9339C27.5033 22.1885 27.3567 22.6398 27.4905 23.0518L30.8049 33.2536C31.1042 34.1749 30.0498 34.941 29.2661 34.3716L20.5878 28.067C20.2373 27.8124 19.7627 27.8124 19.4122 28.067L10.7339 34.3717C9.95024 34.941 8.89581 34.1749 9.19512 33.2536L12.5095 23.0518C12.6433 22.6398 12.4967 22.1885 12.1462 21.9339L3.46838 15.6285C2.68472 15.0591 3.08747 13.8196 4.05616 13.8195L14.7828 13.8191C15.216 13.8191 15.6 13.5402 15.7338 13.1282L19.049 2.92664Z" stroke="#C32D2C"/>
</g>
<defs>
<clipPath id="clip0_5221_43849">
<rect width="40" height="40" fill="white"/>
</clipPath>
</defs>
</svg>
