<svg width="17" height="17" viewBox="0 0 17 17" fill="none" xmlns="http://www.w3.org/2000/svg">
<path d="M2.64062 6.38802C2.64062 5.65164 3.23758 5.05469 3.97396 5.05469H4.59371C5.03952 5.05469 5.45583 4.83189 5.70311 4.46095L6.2448 3.64842C6.49209 3.27749 6.9084 3.05469 7.3542 3.05469H9.92705C10.3729 3.05469 10.7892 3.27749 11.0364 3.64842L11.5781 4.46095C11.8254 4.83189 12.2417 5.05469 12.6875 5.05469H13.3073C14.0437 5.05469 14.6406 5.65164 14.6406 6.38802V12.388C14.6406 13.1244 14.0437 13.7214 13.3073 13.7214H3.97396C3.23758 13.7214 2.64062 13.1244 2.64062 12.388V6.38802Z" stroke="white" stroke-linecap="round" stroke-linejoin="round"/>
<path d="M10.6406 9.05469C10.6406 10.1593 9.74519 11.0547 8.64063 11.0547C7.53606 11.0547 6.64063 10.1593 6.64063 9.05469C6.64063 7.95012 7.53606 7.05469 8.64063 7.05469C9.74519 7.05469 10.6406 7.95012 10.6406 9.05469Z" stroke="white" stroke-linecap="round" stroke-linejoin="round"/>
</svg>
