<svg width="36" height="28" viewBox="0 0 36 28" fill="none" xmlns="http://www.w3.org/2000/svg">
<path d="M26.332 27.3334H34.6654V24.0001C34.6654 21.2387 32.4268 19.0001 29.6654 19.0001C28.0727 19.0001 26.6539 19.7447 25.7383 20.9049M26.332 27.3334H9.66536M26.332 27.3334V24.0001C26.332 22.9063 26.1213 21.8618 25.7383 20.9049M9.66536 27.3334H1.33203V24.0001C1.33203 21.2387 3.57061 19.0001 6.33203 19.0001C7.92471 19.0001 9.34346 19.7447 10.2591 20.9049M9.66536 27.3334V24.0001C9.66536 22.9063 9.87607 21.8618 10.2591 20.9049M10.2591 20.9049C11.4879 17.8351 14.4901 15.6667 17.9987 15.6667C21.5073 15.6667 24.5095 17.8351 25.7383 20.9049M22.9987 5.66675C22.9987 8.42817 20.7601 10.6667 17.9987 10.6667C15.2373 10.6667 12.9987 8.42817 12.9987 5.66675C12.9987 2.90532 15.2373 0.666748 17.9987 0.666748C20.7601 0.666748 22.9987 2.90532 22.9987 5.66675ZM32.9987 10.6667C32.9987 12.5077 31.5063 14.0001 29.6654 14.0001C27.8244 14.0001 26.332 12.5077 26.332 10.6667C26.332 8.8258 27.8244 7.33341 29.6654 7.33341C31.5063 7.33341 32.9987 8.8258 32.9987 10.6667ZM9.66536 10.6667C9.66536 12.5077 8.17298 14.0001 6.33203 14.0001C4.49108 14.0001 2.9987 12.5077 2.9987 10.6667C2.9987 8.8258 4.49108 7.33341 6.33203 7.33341C8.17298 7.33341 9.66536 8.8258 9.66536 10.6667Z" stroke="#C32D2C" stroke-linecap="round" stroke-linejoin="round"/>
</svg>
