<svg width="32" height="28" viewBox="0 0 32 28" fill="none" xmlns="http://www.w3.org/2000/svg">
<path d="M27.6667 27.3332H4.33333C2.49238 27.3332 1 25.8408 1 23.9998L1 3.99984C1 2.15889 2.49239 0.666504 4.33333 0.666504L21 0.666505C22.841 0.666505 24.3333 2.15889 24.3333 3.99984V5.6665M27.6667 27.3332C25.8257 27.3332 24.3333 25.8408 24.3333 23.9998L24.3333 5.6665M27.6667 27.3332C29.5076 27.3332 31 25.8408 31 23.9998V8.99984C31 7.15889 29.5076 5.66651 27.6667 5.6665L24.3333 5.6665M17.6667 0.666504L11 0.666504M7.66667 20.6665H17.6667M7.66667 7.33317H17.6667V13.9998H7.66667V7.33317Z" stroke="#C32D2C" stroke-linecap="round" stroke-linejoin="round"/>
</svg>
