<svg width="28" height="32" viewBox="0 0 28 32" fill="none" xmlns="http://www.w3.org/2000/svg">
<path d="M7.33317 7.66667V21C7.33317 22.8409 8.82555 24.3333 10.6665 24.3333H20.6665M7.33317 7.66667V4.33333C7.33317 2.49238 8.82555 1 10.6665 1H18.3095C18.7515 1 19.1754 1.17559 19.488 1.48816L26.845 8.84518C27.1576 9.15774 27.3332 9.58166 27.3332 10.0237V21C27.3332 22.8409 25.8408 24.3333 23.9998 24.3333H20.6665M7.33317 7.66667H2.6665C1.56193 7.66667 0.666504 8.5621 0.666504 9.66667V27.6667C0.666504 29.5076 2.15889 31 3.99984 31H18.6665C19.7711 31 20.6665 30.1046 20.6665 29V24.3333" stroke="#C32D2C" stroke-linecap="round" stroke-linejoin="round"/>
</svg>
