<svg width="12" height="14" viewBox="0 0 12 14" fill="none" xmlns="http://www.w3.org/2000/svg">
<path d="M4.00065 2.33333H2.66732C1.93094 2.33333 1.33398 2.93029 1.33398 3.66667V11.6667C1.33398 12.403 1.93094 13 2.66732 13H9.33398C10.0704 13 10.6673 12.403 10.6673 11.6667V3.66667C10.6673 2.93029 10.0704 2.33333 9.33398 2.33333H8.00065M4.00065 2.33333C4.00065 3.06971 4.5976 3.66667 5.33398 3.66667H6.66732C7.4037 3.66667 8.00065 3.06971 8.00065 2.33333M4.00065 2.33333C4.00065 1.59695 4.5976 1 5.33398 1H6.66732C7.4037 1 8.00065 1.59695 8.00065 2.33333M6.00065 7H8.00065M6.00065 9.66667H8.00065M4.00065 7H4.00732M4.00065 9.66667H4.00732" stroke="#666666" stroke-linecap="round"/>
</svg>
