<svg width="16" height="12" viewBox="0 0 16 12" fill="none" xmlns="http://www.w3.org/2000/svg">
<path d="M11.334 11.3332H14.6673V9.99984C14.6673 8.89527 13.7719 7.99984 12.6673 7.99984C12.0302 7.99984 11.4627 8.2977 11.0965 8.76176M11.334 11.3332H4.66732M11.334 11.3332V9.99984C11.334 9.56234 11.2497 9.14454 11.0965 8.76176M4.66732 11.3332H1.33398V9.99984C1.33398 8.89527 2.22941 7.99984 3.33398 7.99984C3.97106 7.99984 4.53856 8.2977 4.90482 8.76176M4.66732 11.3332V9.99984C4.66732 9.56234 4.7516 9.14454 4.90482 8.76176M4.90482 8.76176C5.39632 7.53385 6.59719 6.6665 8.00065 6.6665C9.40411 6.6665 10.605 7.53385 11.0965 8.76176M10.0007 2.6665C10.0007 3.77107 9.10522 4.6665 8.00065 4.6665C6.89608 4.6665 6.00065 3.77107 6.00065 2.6665C6.00065 1.56193 6.89608 0.666504 8.00065 0.666504C9.10522 0.666504 10.0007 1.56193 10.0007 2.6665ZM14.0007 4.6665C14.0007 5.40288 13.4037 5.99984 12.6673 5.99984C11.9309 5.99984 11.334 5.40288 11.334 4.6665C11.334 3.93012 11.9309 3.33317 12.6673 3.33317C13.4037 3.33317 14.0007 3.93012 14.0007 4.6665ZM4.66732 4.6665C4.66732 5.40288 4.07036 5.99984 3.33398 5.99984C2.5976 5.99984 2.00065 5.40288 2.00065 4.6665C2.00065 3.93012 2.5976 3.33317 3.33398 3.33317C4.07036 3.33317 4.66732 3.93012 4.66732 4.6665Z" stroke="#666666" stroke-linecap="round" stroke-linejoin="round"/>
</svg>
