<svg width="14" height="14" viewBox="0 0 14 14" fill="none" xmlns="http://www.w3.org/2000/svg">
<path d="M4.99976 7L6.33309 8.33333L8.99976 5.66667M4.22292 2.13136C4.70127 2.09319 5.15539 1.90509 5.52063 1.59383C6.37296 0.867486 7.62655 0.867486 8.47888 1.59383C8.84412 1.90509 9.29824 2.09319 9.7766 2.13136C10.8929 2.22045 11.7793 3.10687 11.8684 4.22316C11.9066 4.70151 12.0947 5.15564 12.4059 5.52088C13.1323 6.3732 13.1323 7.6268 12.4059 8.47912C12.0947 8.84436 11.9066 9.29849 11.8684 9.77684C11.7793 10.8931 10.8929 11.7796 9.7766 11.8686C9.29824 11.9068 8.84412 12.0949 8.47888 12.4062C7.62655 13.1325 6.37296 13.1325 5.52063 12.4062C5.15539 12.0949 4.70127 11.9068 4.22292 11.8686C3.10663 11.7796 2.2202 10.8931 2.13112 9.77684C2.09295 9.29849 1.90484 8.84436 1.59359 8.47912C0.867242 7.6268 0.867242 6.3732 1.59359 5.52088C1.90484 5.15564 2.09295 4.70151 2.13112 4.22316C2.2202 3.10687 3.10663 2.22045 4.22292 2.13136Z" stroke="#666666" stroke-linecap="round" stroke-linejoin="round"/>
</svg>
