<svg width="32" height="32" viewBox="0 0 32 32" fill="none" xmlns="http://www.w3.org/2000/svg">
<path d="M18.5 2.12848L18.1251 2.45935C18.132 2.46713 18.1391 2.47469 18.1464 2.48203L18.5 2.12848ZM29.8715 18.5L29.5407 18.1251C29.5329 18.132 29.5253 18.1391 29.518 18.1464L29.8715 18.5ZM30.1667 13.7951L30.5415 13.4643C30.5347 13.4565 30.5276 13.4489 30.5202 13.4416L30.1667 13.7951ZM13.7951 30.1667L13.4416 30.5202C13.4489 30.5276 13.4565 30.5347 13.4643 30.5415L13.7951 30.1667ZM18.2049 30.1667L18.5357 30.5415C18.5435 30.5347 18.5511 30.5276 18.5584 30.5202L18.2049 30.1667ZM2.12848 18.5L2.48203 18.1464L2.47102 18.1354L2.45935 18.1251L2.12848 18.5ZM7.66667 7.16667C7.39052 7.16667 7.16667 7.39052 7.16667 7.66667C7.16667 7.94281 7.39052 8.16667 7.66667 8.16667V7.16667ZM7.68333 8.16667C7.95948 8.16667 8.18333 7.94281 8.18333 7.66667C8.18333 7.39052 7.95948 7.16667 7.68333 7.16667V8.16667ZM1.5 7.66667C1.5 4.26091 4.26091 1.5 7.66667 1.5V0.5C3.70863 0.5 0.5 3.70863 0.5 7.66667H1.5ZM1.5 16V7.66667H0.5V16H1.5ZM7.66667 1.5H16V0.5H7.66667V1.5ZM16 1.5C16.8462 1.5 17.6052 1.8703 18.1251 2.45935L18.8749 1.79761C18.1732 1.00262 17.145 0.5 16 0.5V1.5ZM30.5 16C30.5 16.8462 30.1297 17.6052 29.5407 18.1251L30.2024 18.8749C30.9974 18.1732 31.5 17.145 31.5 16H30.5ZM29.7918 14.126C30.2329 14.6258 30.5 15.2811 30.5 16H31.5C31.5 15.0282 31.1377 14.1397 30.5415 13.4643L29.7918 14.126ZM16 30.5C15.2811 30.5 14.6258 30.2329 14.126 29.7918L13.4643 30.5415C14.1397 31.1377 15.0282 31.5 16 31.5V30.5ZM17.874 29.7918C17.3742 30.2329 16.7189 30.5 16 30.5V31.5C16.9718 31.5 17.8603 31.1377 18.5357 30.5415L17.874 29.7918ZM2.45935 18.1251C1.8703 17.6052 1.5 16.8462 1.5 16H0.5C0.5 17.145 1.00262 18.1732 1.79761 18.8749L2.45935 18.1251ZM18.1464 2.48203L29.8131 14.1487L30.5202 13.4416L18.8536 1.77493L18.1464 2.48203ZM14.1487 29.8131L2.48203 18.1464L1.77493 18.8536L13.4416 30.5202L14.1487 29.8131ZM29.518 18.1464L17.8513 29.8131L18.5584 30.5202L30.2251 18.8536L29.518 18.1464ZM7.66667 8.16667H7.68333V7.16667H7.66667V8.16667Z" fill="#C32D2C"/>
</svg>
