<svg width="48" height="48" viewBox="0 0 48 48" fill="none" xmlns="http://www.w3.org/2000/svg">
<path d="M0 24C0 10.7452 10.7452 0 24 0C37.2548 0 48 10.7452 48 24C48 37.2548 37.2548 48 24 48C10.7452 48 0 37.2548 0 24Z" fill="#55ACEE"/>
<path d="M23.2812 19.5059L23.3316 20.3364L22.4922 20.2347C19.4369 19.8449 16.7677 18.523 14.5013 16.3028L13.3934 15.2011L13.108 16.0146C12.5036 17.8281 12.8897 19.7432 14.1488 21.0313C14.8203 21.7431 14.6692 21.8448 13.5109 21.4211C13.108 21.2855 12.7554 21.1838 12.7219 21.2346C12.6044 21.3533 13.0073 22.8955 13.3262 23.5057C13.7627 24.3531 14.6524 25.1835 15.6261 25.675L16.4487 26.0648L15.475 26.0818C14.5349 26.0818 14.5013 26.0987 14.6021 26.4546C14.9378 27.5563 16.264 28.7257 17.7413 29.2341L18.7822 29.59L17.8756 30.1324C16.5326 30.912 14.9546 31.3526 13.3766 31.3865C12.6211 31.4035 12 31.4713 12 31.5221C12 31.6916 14.0481 32.6407 15.24 33.0135C18.8157 34.1152 23.063 33.6406 26.2526 31.7594C28.5189 30.4205 30.7852 27.7596 31.8428 25.1835C32.4136 23.8107 32.9844 21.3024 32.9844 20.0991C32.9844 19.3195 33.0347 19.2178 33.9748 18.2857C34.5288 17.7433 35.0492 17.1502 35.15 16.9807C35.3178 16.6587 35.3011 16.6587 34.4449 16.9468C33.018 17.4552 32.8165 17.3874 33.5216 16.6248C34.042 16.0824 34.6631 15.0994 34.6631 14.8113C34.6631 14.7605 34.4113 14.8452 34.1259 14.9978C33.8238 15.1672 33.1523 15.4215 32.6486 15.574L31.7421 15.8621L30.9195 15.3028C30.4663 14.9978 29.8283 14.6588 29.4926 14.5571C28.6364 14.3198 27.327 14.3537 26.5548 14.6249C24.4563 15.3876 23.1301 17.3535 23.2812 19.5059Z" fill="white"/>
</svg>
